<svg id="Capa_1" enable-background="new 0 0 512 512" height="512" viewBox="0 0 512 512" width="512" xmlns="http://www.w3.org/2000/svg"><path d="m82.328 290.232c-9.353 11.238-3.264 28.377 10.936 31.335v9.079c0 4.142 3.357 7.5 7.5 7.5s7.5-3.358 7.5-7.5v-8.673h12.35v175.027h-12.35v-131.354c0-4.142-3.357-7.5-7.5-7.5s-7.5 3.358-7.5 7.5v138.854c0 4.142 3.357 7.5 7.5 7.5h364.876c4.666 0 8.219-4.23 7.379-8.845l-17.036-93.467c-5.688-31.207-32.839-53.856-64.56-53.856h-16.833l8.979-13.927c8.142-12.627 9.846-28.562 4.559-42.625l-7.104-18.898c10.043-6.577 16.227-17.768 16.227-30.156 0-3.063.005-5.746-1.397-9.558h37.486c3.294 0 6.203-2.149 7.17-5.298s-.234-6.561-2.961-8.409l-61.641-41.795c-16.055-45.479-29.834-84.515-45.877-129.963h3.823c22.35 0 40.533-18.183 40.533-40.533v-7.17c0-4.142-3.357-7.5-7.5-7.5h-75.33c-11.356 0-21.526 7.195-25.308 17.904-25.223 71.454-31.268 88.579-59.042 167.262l-43.029 29.175c-9.892-17.236-28.483-28.871-49.74-28.871-31.599 0-57.307 25.708-57.307 57.306.002 19.32 9.802 36.988 25.197 47.456zm14.891 16.741c-2.408 0-4.368-1.959-4.368-4.368s1.96-4.368 4.368-4.368h34.441c2.408 0 4.368 1.959 4.368 4.368s-1.96 4.368-4.368 4.368c-11.605 0-24.434 0-34.441 0zm273.744 26.803c-2.679 4.155-21.162 32.823-26.483 41.077-2.244 3.481-1.241 8.123 2.239 10.368 3.479 2.24 8.119 1.247 10.368-2.24l7.833-12.15h26.503c24.47 0 45.414 17.473 49.802 41.546l15.425 84.623h-53.413l-7.788-49.125c-.647-4.09-4.478-6.883-8.582-6.233-4.091.649-6.881 4.491-6.232 8.582l7.415 46.776h-192.983l7.416-46.776c.648-4.091-2.142-7.933-6.232-8.582-4.098-.646-7.934 2.143-8.582 6.233l-7.788 49.125h-44.267v-50.179l6.278-34.443c4.388-24.073 25.332-41.546 49.802-41.546h26.503c70.683 109.63 67.252 104.641 68.643 105.773 3.185 2.578 7.833 2.11 10.452-.995.459-.545-2.269 3.632 40.085-62.059 2.244-3.481 1.241-8.123-2.239-10.367-3.481-2.244-8.122-1.243-10.368 2.239l-14.069 21.821 16.543-63.225c1.049-4.007-1.351-8.105-5.357-9.154-4.008-1.048-8.106 1.35-9.154 5.357l-21.175 80.925-21.175-80.925c-1.048-4.007-5.142-6.408-9.154-5.357-4.007 1.049-6.406 5.147-5.357 9.154l16.543 63.224c-4.723-7.325-42.173-65.411-60.261-93.466-5.58-8.656-6.748-19.578-3.124-29.218l12.561-33.413 4.698 13.925c-3.409 4.058-4.955 6.884-8.131 12.136-3.014 4.985.575 11.381 6.418 11.381h9.647l7.658 22.696c3.771 11.176 16.417 16.501 27.004 11.577l15.855-7.375c4.333-2.016 9.302-2.015 13.635 0l15.856 7.375c10.628 4.944 23.243-.433 27.004-11.577l7.657-22.696h9.648c5.827 0 9.44-6.383 6.418-11.381-3.105-5.134-4.741-8.1-8.131-12.135l4.698-13.925 12.561 33.413c3.626 9.639 2.458 20.561-3.123 29.216zm-170.097-83.55v-1.682c0-4.343 3.533-7.876 7.876-7.876h5.11l.519 7.053-6.764 17.992c-4.231-3.906-6.741-9.454-6.741-15.487zm111.986 29.285c12.063 0 23.559 5.252 31.512 14.077-8.447 0-17.576 0-22.261 0-9.649 0-19.265-1.283-28.578-3.814-1.285-.35-2.647-.351-3.934 0-9.313 2.531-18.927 3.814-28.577 3.814-4.599 0-13.796 0-22.261 0 7.953-8.826 19.449-14.077 31.512-14.077zm-51.838 29.077c10.301 0 20.565-1.285 30.544-3.822 17.082 4.342 28.811 3.822 41.504 3.822l-6.04 17.9c-.898 2.663-3.91 3.96-6.465 2.772l-15.857-7.376c-8.352-3.884-17.932-3.884-26.285 0l-15.856 7.375c-2.548 1.185-5.564-.104-6.465-2.772l-6.04-17.901h10.96zm92.722-61.27-9.07 26.881c-9.305-6.199-20.371-9.689-31.814-9.689h-4.16c.208-1.575.15-.567.15-23.843h45.383zm-59.893 14.91c0 1.253-1.014 2.273-2.265 2.283h-21.312c-11.442 0-22.509 3.49-31.814 9.689l-9.07-26.881-.49-6.65h64.95v21.559zm88.409-13.684v1.682c0 6.033-2.51 11.58-6.742 15.487l-6.764-17.992.52-7.053h5.109c4.344 0 7.877 3.533 7.877 7.876zm-101.857-225.646c1.668-4.724 6.155-7.898 11.163-7.898h67.828c-.177 13.928-11.563 25.203-25.531 25.203h-9.118l-3.049-8.638c-1.378-3.906-5.663-5.956-9.568-4.576-3.906 1.379-5.955 5.663-4.576 9.569 7.938 22.488 30.378 86.058 39.689 112.436h-10.338c-4.143 0-7.5 3.358-7.5 7.5s3.357 7.5 7.5 7.5h15.633l6.529 18.494h-134.997l6.529-18.494h71.306c4.143 0 7.5-3.358 7.5-7.5s-3.357-7.5-7.5-7.5h-66.012zm-64.632 174.591h151.593l41.56 28.179c-79.022 0-189.612 0-234.712 0zm-28.5 43.179c-1.438 3.909-1.397 6.788-1.397 9.558 0 12.388 6.184 23.58 16.227 30.156l-7.104 18.898c-5.287 14.062-3.583 29.997 4.558 42.624l8.979 13.927h-16.832c-23.483 0-44.46 12.414-56.08 31.522v-65.787c14.201-2.957 20.289-20.097 10.936-31.335 16.139-10.974 25.883-29.632 25.156-49.564h15.557zm-72.824-40.198c23.327 0 42.306 18.979 42.306 42.306 0 18.561-12.246 35.056-29.902 40.46h-24.808c-17.656-5.404-29.902-21.9-29.902-40.46 0-23.327 18.978-42.306 42.306-42.306z"/><path d="m114.439 225.47c9.542 0 17.306 7.764 17.306 17.306 0 4.142 3.357 7.5 7.5 7.5s7.5-3.358 7.5-7.5c0-17.813-14.492-32.306-32.306-32.306-4.143 0-7.5 3.358-7.5 7.5s3.358 7.5 7.5 7.5z"/><path d="m114.439 170.47c4.143 0 7.5-3.358 7.5-7.5v-16.476c0-4.142-3.357-7.5-7.5-7.5s-7.5 3.358-7.5 7.5v16.476c0 4.142 3.358 7.5 7.5 7.5z"/><path d="m52.705 191.648c2.927 2.929 7.677 2.929 10.606 0s2.929-7.678-.001-10.606l-11.65-11.65c-2.928-2.93-7.677-2.929-10.606 0s-2.929 7.678.001 10.606z"/><path d="m176.175 191.648 11.649-11.65c2.929-2.929 2.929-7.678-.001-10.606-2.928-2.93-7.677-2.929-10.606 0l-11.649 11.65c-2.929 2.929-2.929 7.678.001 10.606 2.926 2.929 7.676 2.929 10.606 0z"/></svg>